# xmcd
#
# Track frame offsets:
#	150
#	22809
#	49271
#	78801
#	100105
#	133074
#	166233
#	189094
#	211785
#	245445
#	266062
#	290831
#	311140
#
# Disc length: 4249 seconds
#
# Revision: 0
# Processed by: cddbd v1.5.2PL0 Copyright (c) Steve Scherf et al.
# Submitted via: EZCDAudioConverter 2.0.5.1
#
DISCID=ad10970d
DTITLE=Walter Wolfman Washington - Howlin' Live at DBA, New Orleans
DYEAR=2013
DGENRE=NO Blues
TTITLE0=Funkyard
TTITLE1=I'm Tip Toeing Through
TTITLE2=When the Answer Is Clear
TTITLE3=At Night In The City
TTITLE4=Girl I Want To Dance
TTITLE5=You Got Me Worried
TTITLE6=I'm In Love
TTITLE7=Blue Moon Risin'
TTITLE8=Tweakin'
TTITLE9=Ain't That Lovin You
TTITLE10=Tailspin
TTITLE11=Stop And Think
TTITLE12=Wolfman Outro
EXTD=
EXTT0=
EXTT1=
EXTT2=
EXTT3=
EXTT4=
EXTT5=
EXTT6=
EXTT7=
EXTT8=
EXTT9=
EXTT10=
EXTT11=
EXTT12=
PLAYORDER=
